<?xml version="1.0" encoding="UTF-8"?>
<mxfile host="Electron" agent="Mozilla/5.0 (Windows NT 10.0; Win64; x64) AppleWebKit/537.36 (KHTML, like Gecko) draw.io/26.2.2 Chrome/134.0.6998.178 Electron/35.1.2 Safari/537.36" version="26.2.2">
  <diagram name="Page-1" id="A7NNfH3Un7erC_dhWsfA">
    <mxGraphModel dx="4176" dy="2504" grid="1" gridSize="10" guides="1" tooltips="1" connect="1" arrows="1" fold="1" page="1" pageScale="1" pageWidth="4681" pageHeight="3300" math="0" shadow="0">
      <root>
        <mxCell id="0" />
        <mxCell id="1" parent="0" />
        <mxCell id="R3zVgSlBBkoLg3xWVGZW-7" style="edgeStyle=orthogonalEdgeStyle;rounded=0;orthogonalLoop=1;jettySize=auto;html=1;exitX=0.5;exitY=1;exitDx=0;exitDy=0;entryX=0.5;entryY=0;entryDx=0;entryDy=0;" edge="1" parent="1" source="R3zVgSlBBkoLg3xWVGZW-5" target="R3zVgSlBBkoLg3xWVGZW-6">
          <mxGeometry relative="1" as="geometry" />
        </mxCell>
        <mxCell id="R3zVgSlBBkoLg3xWVGZW-5" value="" style="ellipse;whiteSpace=wrap;html=1;aspect=fixed;" vertex="1" parent="1">
          <mxGeometry x="2090" y="130" width="130" height="130" as="geometry" />
        </mxCell>
        <mxCell id="R3zVgSlBBkoLg3xWVGZW-6" value="&lt;font style=&quot;font-size: 16px;&quot;&gt;Enter email&lt;/font&gt;&lt;div&gt;&lt;font style=&quot;font-size: 16px;&quot;&gt;&amp;amp;password&lt;/font&gt;&lt;/div&gt;" style="shape=parallelogram;perimeter=parallelogramPerimeter;whiteSpace=wrap;html=1;fixedSize=1;" vertex="1" parent="1">
          <mxGeometry x="2070" y="340" width="170" height="90" as="geometry" />
        </mxCell>
        <mxCell id="R3zVgSlBBkoLg3xWVGZW-11" style="edgeStyle=orthogonalEdgeStyle;rounded=0;orthogonalLoop=1;jettySize=auto;html=1;exitX=0.5;exitY=1;exitDx=0;exitDy=0;entryX=0.5;entryY=0;entryDx=0;entryDy=0;" edge="1" parent="1" source="R3zVgSlBBkoLg3xWVGZW-8" target="R3zVgSlBBkoLg3xWVGZW-10">
          <mxGeometry relative="1" as="geometry" />
        </mxCell>
        <mxCell id="R3zVgSlBBkoLg3xWVGZW-8" value="&lt;font style=&quot;font-size: 15px;&quot;&gt;Validate credentials&lt;/font&gt;" style="rounded=0;whiteSpace=wrap;html=1;" vertex="1" parent="1">
          <mxGeometry x="2060" y="480" width="150" height="70" as="geometry" />
        </mxCell>
        <mxCell id="R3zVgSlBBkoLg3xWVGZW-9" style="edgeStyle=orthogonalEdgeStyle;rounded=0;orthogonalLoop=1;jettySize=auto;html=1;exitX=0.5;exitY=1;exitDx=0;exitDy=0;entryX=0.631;entryY=-0.034;entryDx=0;entryDy=0;entryPerimeter=0;" edge="1" parent="1" source="R3zVgSlBBkoLg3xWVGZW-6" target="R3zVgSlBBkoLg3xWVGZW-8">
          <mxGeometry relative="1" as="geometry" />
        </mxCell>
        <mxCell id="R3zVgSlBBkoLg3xWVGZW-18" style="edgeStyle=orthogonalEdgeStyle;rounded=0;orthogonalLoop=1;jettySize=auto;html=1;entryX=0.5;entryY=0;entryDx=0;entryDy=0;" edge="1" parent="1" source="R3zVgSlBBkoLg3xWVGZW-10" target="R3zVgSlBBkoLg3xWVGZW-17">
          <mxGeometry relative="1" as="geometry" />
        </mxCell>
        <mxCell id="R3zVgSlBBkoLg3xWVGZW-19" value="Yes" style="edgeLabel;html=1;align=center;verticalAlign=middle;resizable=0;points=[];" vertex="1" connectable="0" parent="R3zVgSlBBkoLg3xWVGZW-18">
          <mxGeometry x="-0.3938" y="1" relative="1" as="geometry">
            <mxPoint as="offset" />
          </mxGeometry>
        </mxCell>
        <mxCell id="R3zVgSlBBkoLg3xWVGZW-10" value="&lt;font style=&quot;font-size: 15px;&quot;&gt;are credentials&lt;/font&gt;&lt;div&gt;&lt;font style=&quot;font-size: 15px;&quot;&gt;valid?&lt;/font&gt;&lt;/div&gt;" style="rhombus;whiteSpace=wrap;html=1;" vertex="1" parent="1">
          <mxGeometry x="2090" y="580" width="130" height="110" as="geometry" />
        </mxCell>
        <mxCell id="R3zVgSlBBkoLg3xWVGZW-38" style="edgeStyle=orthogonalEdgeStyle;rounded=0;orthogonalLoop=1;jettySize=auto;html=1;exitX=0.5;exitY=1;exitDx=0;exitDy=0;entryX=0.5;entryY=0;entryDx=0;entryDy=0;" edge="1" parent="1" source="R3zVgSlBBkoLg3xWVGZW-12" target="R3zVgSlBBkoLg3xWVGZW-37">
          <mxGeometry relative="1" as="geometry" />
        </mxCell>
        <mxCell id="R3zVgSlBBkoLg3xWVGZW-12" value="&lt;font style=&quot;font-size: 15px;&quot;&gt;Display &quot;login failed&lt;/font&gt;&quot;" style="shape=parallelogram;perimeter=parallelogramPerimeter;whiteSpace=wrap;html=1;fixedSize=1;" vertex="1" parent="1">
          <mxGeometry x="2210" y="690" width="120" height="60" as="geometry" />
        </mxCell>
        <mxCell id="R3zVgSlBBkoLg3xWVGZW-13" style="edgeStyle=orthogonalEdgeStyle;rounded=0;orthogonalLoop=1;jettySize=auto;html=1;exitX=1;exitY=0.5;exitDx=0;exitDy=0;entryX=0.564;entryY=-0.021;entryDx=0;entryDy=0;entryPerimeter=0;" edge="1" parent="1" source="R3zVgSlBBkoLg3xWVGZW-10" target="R3zVgSlBBkoLg3xWVGZW-12">
          <mxGeometry relative="1" as="geometry">
            <Array as="points">
              <mxPoint x="2278" y="635" />
            </Array>
          </mxGeometry>
        </mxCell>
        <mxCell id="R3zVgSlBBkoLg3xWVGZW-15" value="No" style="edgeLabel;html=1;align=center;verticalAlign=middle;resizable=0;points=[];" vertex="1" connectable="0" parent="R3zVgSlBBkoLg3xWVGZW-13">
          <mxGeometry x="-0.2388" y="1" relative="1" as="geometry">
            <mxPoint as="offset" />
          </mxGeometry>
        </mxCell>
        <mxCell id="R3zVgSlBBkoLg3xWVGZW-17" value="&lt;font style=&quot;font-size: 15px;&quot;&gt;Dashboard&lt;/font&gt;" style="rounded=0;whiteSpace=wrap;html=1;" vertex="1" parent="1">
          <mxGeometry x="1940" y="690" width="120" height="60" as="geometry" />
        </mxCell>
        <mxCell id="R3zVgSlBBkoLg3xWVGZW-21" value="" style="html=1;points=[];perimeter=orthogonalPerimeter;fillColor=strokeColor;direction=south;" vertex="1" parent="1">
          <mxGeometry x="910" y="830" width="2930" height="5" as="geometry" />
        </mxCell>
        <mxCell id="R3zVgSlBBkoLg3xWVGZW-26" value="Retrieve exchange stats" style="rounded=0;whiteSpace=wrap;html=1;" vertex="1" parent="1">
          <mxGeometry x="950" y="900" width="120" height="70" as="geometry" />
        </mxCell>
        <mxCell id="R3zVgSlBBkoLg3xWVGZW-34" style="edgeStyle=orthogonalEdgeStyle;rounded=0;orthogonalLoop=1;jettySize=auto;html=1;exitX=0.5;exitY=1;exitDx=0;exitDy=0;entryX=0.5;entryY=0;entryDx=0;entryDy=0;" edge="1" parent="1" source="R3zVgSlBBkoLg3xWVGZW-31" target="R3zVgSlBBkoLg3xWVGZW-33">
          <mxGeometry relative="1" as="geometry" />
        </mxCell>
        <mxCell id="R3zVgSlBBkoLg3xWVGZW-31" value="Render charts&lt;div&gt;&amp;nbsp;&amp;amp; KPI cards&lt;/div&gt;" style="rounded=0;whiteSpace=wrap;html=1;" vertex="1" parent="1">
          <mxGeometry x="950" y="1010" width="120" height="60" as="geometry" />
        </mxCell>
        <mxCell id="R3zVgSlBBkoLg3xWVGZW-32" style="edgeStyle=orthogonalEdgeStyle;rounded=0;orthogonalLoop=1;jettySize=auto;html=1;exitX=0.5;exitY=1;exitDx=0;exitDy=0;entryX=0.506;entryY=0.065;entryDx=0;entryDy=0;entryPerimeter=0;" edge="1" parent="1" source="R3zVgSlBBkoLg3xWVGZW-26" target="R3zVgSlBBkoLg3xWVGZW-31">
          <mxGeometry relative="1" as="geometry" />
        </mxCell>
        <mxCell id="R3zVgSlBBkoLg3xWVGZW-36" style="edgeStyle=orthogonalEdgeStyle;rounded=0;orthogonalLoop=1;jettySize=auto;html=1;exitX=0.439;exitY=1.019;exitDx=0;exitDy=0;entryX=0.5;entryY=0;entryDx=0;entryDy=0;exitPerimeter=0;" edge="1" parent="1" source="R3zVgSlBBkoLg3xWVGZW-33" target="R3zVgSlBBkoLg3xWVGZW-35">
          <mxGeometry relative="1" as="geometry" />
        </mxCell>
        <mxCell id="R3zVgSlBBkoLg3xWVGZW-33" value="Show live dashboared to admins" style="shape=parallelogram;perimeter=parallelogramPerimeter;whiteSpace=wrap;html=1;fixedSize=1;" vertex="1" parent="1">
          <mxGeometry x="950" y="1100" width="120" height="60" as="geometry" />
        </mxCell>
        <mxCell id="R3zVgSlBBkoLg3xWVGZW-40" style="edgeStyle=orthogonalEdgeStyle;rounded=0;orthogonalLoop=1;jettySize=auto;html=1;exitX=0.5;exitY=1;exitDx=0;exitDy=0;entryX=0.5;entryY=0;entryDx=0;entryDy=0;" edge="1" parent="1" source="R3zVgSlBBkoLg3xWVGZW-35" target="R3zVgSlBBkoLg3xWVGZW-39">
          <mxGeometry relative="1" as="geometry" />
        </mxCell>
        <mxCell id="R3zVgSlBBkoLg3xWVGZW-41" value="Yes" style="edgeLabel;html=1;align=center;verticalAlign=middle;resizable=0;points=[];" vertex="1" connectable="0" parent="R3zVgSlBBkoLg3xWVGZW-40">
          <mxGeometry x="-0.18" y="-1" relative="1" as="geometry">
            <mxPoint as="offset" />
          </mxGeometry>
        </mxCell>
        <mxCell id="R3zVgSlBBkoLg3xWVGZW-46" style="edgeStyle=orthogonalEdgeStyle;rounded=0;orthogonalLoop=1;jettySize=auto;html=1;exitX=1;exitY=0.5;exitDx=0;exitDy=0;entryX=1;entryY=0.5;entryDx=0;entryDy=0;" edge="1" parent="1" source="R3zVgSlBBkoLg3xWVGZW-35" target="R3zVgSlBBkoLg3xWVGZW-44">
          <mxGeometry relative="1" as="geometry">
            <Array as="points">
              <mxPoint x="1080" y="1240" />
              <mxPoint x="1080" y="1545" />
            </Array>
          </mxGeometry>
        </mxCell>
        <mxCell id="R3zVgSlBBkoLg3xWVGZW-47" value="No" style="edgeLabel;html=1;align=center;verticalAlign=middle;resizable=0;points=[];" vertex="1" connectable="0" parent="R3zVgSlBBkoLg3xWVGZW-46">
          <mxGeometry x="-0.2152" y="-2" relative="1" as="geometry">
            <mxPoint as="offset" />
          </mxGeometry>
        </mxCell>
        <mxCell id="R3zVgSlBBkoLg3xWVGZW-35" value="&lt;font style=&quot;font-size: 10px;&quot;&gt;Is drill-down click?&lt;/font&gt;" style="rhombus;whiteSpace=wrap;html=1;" vertex="1" parent="1">
          <mxGeometry x="960" y="1200" width="80" height="80" as="geometry" />
        </mxCell>
        <mxCell id="R3zVgSlBBkoLg3xWVGZW-37" value="" style="ellipse;whiteSpace=wrap;html=1;aspect=fixed;" vertex="1" parent="1">
          <mxGeometry x="2240" y="770" width="50" height="50" as="geometry" />
        </mxCell>
        <mxCell id="R3zVgSlBBkoLg3xWVGZW-39" value="Load detailed report for selected metric" style="rounded=0;whiteSpace=wrap;html=1;" vertex="1" parent="1">
          <mxGeometry x="940" y="1330" width="120" height="60" as="geometry" />
        </mxCell>
        <mxCell id="R3zVgSlBBkoLg3xWVGZW-45" style="edgeStyle=orthogonalEdgeStyle;rounded=0;orthogonalLoop=1;jettySize=auto;html=1;exitX=0.457;exitY=0.993;exitDx=0;exitDy=0;entryX=0.5;entryY=0;entryDx=0;entryDy=0;exitPerimeter=0;" edge="1" parent="1" source="R3zVgSlBBkoLg3xWVGZW-42" target="R3zVgSlBBkoLg3xWVGZW-44">
          <mxGeometry relative="1" as="geometry" />
        </mxCell>
        <mxCell id="R3zVgSlBBkoLg3xWVGZW-42" value="Display report" style="shape=parallelogram;perimeter=parallelogramPerimeter;whiteSpace=wrap;html=1;fixedSize=1;" vertex="1" parent="1">
          <mxGeometry x="930" y="1430" width="120" height="60" as="geometry" />
        </mxCell>
        <mxCell id="R3zVgSlBBkoLg3xWVGZW-43" style="edgeStyle=orthogonalEdgeStyle;rounded=0;orthogonalLoop=1;jettySize=auto;html=1;exitX=0.5;exitY=1;exitDx=0;exitDy=0;entryX=0.581;entryY=0.05;entryDx=0;entryDy=0;entryPerimeter=0;" edge="1" parent="1" source="R3zVgSlBBkoLg3xWVGZW-39" target="R3zVgSlBBkoLg3xWVGZW-42">
          <mxGeometry relative="1" as="geometry" />
        </mxCell>
        <mxCell id="R3zVgSlBBkoLg3xWVGZW-44" value="" style="rhombus;whiteSpace=wrap;html=1;" vertex="1" parent="1">
          <mxGeometry x="970" y="1530" width="30" height="30" as="geometry" />
        </mxCell>
        <mxCell id="R3zVgSlBBkoLg3xWVGZW-48" value="Back to dashboared" style="rounded=0;whiteSpace=wrap;html=1;" vertex="1" parent="1">
          <mxGeometry x="930" y="1600" width="120" height="60" as="geometry" />
        </mxCell>
        <mxCell id="R3zVgSlBBkoLg3xWVGZW-49" style="edgeStyle=orthogonalEdgeStyle;rounded=0;orthogonalLoop=1;jettySize=auto;html=1;exitX=0.5;exitY=1;exitDx=0;exitDy=0;entryX=0.465;entryY=0.029;entryDx=0;entryDy=0;entryPerimeter=0;" edge="1" parent="1" source="R3zVgSlBBkoLg3xWVGZW-44" target="R3zVgSlBBkoLg3xWVGZW-48">
          <mxGeometry relative="1" as="geometry" />
        </mxCell>
        <mxCell id="R3zVgSlBBkoLg3xWVGZW-54" style="edgeStyle=orthogonalEdgeStyle;rounded=0;orthogonalLoop=1;jettySize=auto;html=1;exitX=0.5;exitY=1;exitDx=0;exitDy=0;entryX=0.5;entryY=0;entryDx=0;entryDy=0;" edge="1" parent="1" source="R3zVgSlBBkoLg3xWVGZW-50" target="R3zVgSlBBkoLg3xWVGZW-52">
          <mxGeometry relative="1" as="geometry" />
        </mxCell>
        <mxCell id="R3zVgSlBBkoLg3xWVGZW-50" value="Fetch staff list" style="rounded=0;whiteSpace=wrap;html=1;" vertex="1" parent="1">
          <mxGeometry x="1660" y="890" width="120" height="60" as="geometry" />
        </mxCell>
        <mxCell id="R3zVgSlBBkoLg3xWVGZW-56" style="edgeStyle=orthogonalEdgeStyle;rounded=0;orthogonalLoop=1;jettySize=auto;html=1;exitX=0;exitY=0.5;exitDx=0;exitDy=0;entryX=0.5;entryY=0;entryDx=0;entryDy=0;" edge="1" parent="1" source="R3zVgSlBBkoLg3xWVGZW-52" target="R3zVgSlBBkoLg3xWVGZW-53">
          <mxGeometry relative="1" as="geometry" />
        </mxCell>
        <mxCell id="R3zVgSlBBkoLg3xWVGZW-52" value="Show table of&amp;nbsp;&lt;div&gt;staff&lt;/div&gt;" style="shape=parallelogram;perimeter=parallelogramPerimeter;whiteSpace=wrap;html=1;fixedSize=1;" vertex="1" parent="1">
          <mxGeometry x="1660" y="980" width="120" height="60" as="geometry" />
        </mxCell>
        <mxCell id="R3zVgSlBBkoLg3xWVGZW-58" style="edgeStyle=orthogonalEdgeStyle;rounded=0;orthogonalLoop=1;jettySize=auto;html=1;exitX=0.5;exitY=1;exitDx=0;exitDy=0;entryX=0.5;entryY=0;entryDx=0;entryDy=0;" edge="1" parent="1" source="R3zVgSlBBkoLg3xWVGZW-53" target="R3zVgSlBBkoLg3xWVGZW-57">
          <mxGeometry relative="1" as="geometry" />
        </mxCell>
        <mxCell id="R3zVgSlBBkoLg3xWVGZW-59" value="Add" style="edgeLabel;html=1;align=center;verticalAlign=middle;resizable=0;points=[];" vertex="1" connectable="0" parent="R3zVgSlBBkoLg3xWVGZW-58">
          <mxGeometry x="-0.0752" y="1" relative="1" as="geometry">
            <mxPoint as="offset" />
          </mxGeometry>
        </mxCell>
        <mxCell id="R3zVgSlBBkoLg3xWVGZW-77" style="edgeStyle=orthogonalEdgeStyle;rounded=0;orthogonalLoop=1;jettySize=auto;html=1;exitX=1;exitY=0.5;exitDx=0;exitDy=0;entryX=0;entryY=0.5;entryDx=0;entryDy=0;" edge="1" parent="1" source="R3zVgSlBBkoLg3xWVGZW-53" target="R3zVgSlBBkoLg3xWVGZW-76">
          <mxGeometry relative="1" as="geometry" />
        </mxCell>
        <mxCell id="R3zVgSlBBkoLg3xWVGZW-53" value="&lt;font style=&quot;font-size: 10px;&quot;&gt;What action chosen?&lt;/font&gt;" style="rhombus;whiteSpace=wrap;html=1;" vertex="1" parent="1">
          <mxGeometry x="1510" y="1040" width="80" height="80" as="geometry" />
        </mxCell>
        <mxCell id="R3zVgSlBBkoLg3xWVGZW-61" style="edgeStyle=orthogonalEdgeStyle;rounded=0;orthogonalLoop=1;jettySize=auto;html=1;entryX=0.5;entryY=0;entryDx=0;entryDy=0;" edge="1" parent="1" target="R3zVgSlBBkoLg3xWVGZW-60">
          <mxGeometry relative="1" as="geometry">
            <mxPoint x="1530" y="1231" as="sourcePoint" />
          </mxGeometry>
        </mxCell>
        <mxCell id="R3zVgSlBBkoLg3xWVGZW-57" value="Open &quot; Add staff &quot;&lt;div&gt;form&lt;/div&gt;" style="shape=parallelogram;perimeter=parallelogramPerimeter;whiteSpace=wrap;html=1;fixedSize=1;" vertex="1" parent="1">
          <mxGeometry x="1490" y="1170" width="120" height="60" as="geometry" />
        </mxCell>
        <mxCell id="R3zVgSlBBkoLg3xWVGZW-63" style="edgeStyle=orthogonalEdgeStyle;rounded=0;orthogonalLoop=1;jettySize=auto;html=1;exitX=0.5;exitY=1;exitDx=0;exitDy=0;entryX=0.5;entryY=0;entryDx=0;entryDy=0;" edge="1" parent="1" source="R3zVgSlBBkoLg3xWVGZW-60" target="R3zVgSlBBkoLg3xWVGZW-62">
          <mxGeometry relative="1" as="geometry" />
        </mxCell>
        <mxCell id="R3zVgSlBBkoLg3xWVGZW-60" value="Validate form" style="rounded=0;whiteSpace=wrap;html=1;" vertex="1" parent="1">
          <mxGeometry x="1470" y="1270" width="120" height="60" as="geometry" />
        </mxCell>
        <mxCell id="R3zVgSlBBkoLg3xWVGZW-62" value="Is it valid?" style="rhombus;whiteSpace=wrap;html=1;" vertex="1" parent="1">
          <mxGeometry x="1490" y="1360" width="80" height="80" as="geometry" />
        </mxCell>
        <mxCell id="R3zVgSlBBkoLg3xWVGZW-72" style="edgeStyle=orthogonalEdgeStyle;rounded=0;orthogonalLoop=1;jettySize=auto;html=1;exitX=0.5;exitY=1;exitDx=0;exitDy=0;entryX=0.5;entryY=0;entryDx=0;entryDy=0;" edge="1" parent="1" source="R3zVgSlBBkoLg3xWVGZW-64" target="R3zVgSlBBkoLg3xWVGZW-70">
          <mxGeometry relative="1" as="geometry" />
        </mxCell>
        <mxCell id="R3zVgSlBBkoLg3xWVGZW-64" value="Insert new staff record" style="rounded=0;whiteSpace=wrap;html=1;" vertex="1" parent="1">
          <mxGeometry x="1360" y="1470" width="120" height="60" as="geometry" />
        </mxCell>
        <mxCell id="R3zVgSlBBkoLg3xWVGZW-65" style="edgeStyle=orthogonalEdgeStyle;rounded=0;orthogonalLoop=1;jettySize=auto;html=1;exitX=0;exitY=0.5;exitDx=0;exitDy=0;entryX=0.47;entryY=0.027;entryDx=0;entryDy=0;entryPerimeter=0;" edge="1" parent="1" source="R3zVgSlBBkoLg3xWVGZW-62" target="R3zVgSlBBkoLg3xWVGZW-64">
          <mxGeometry relative="1" as="geometry" />
        </mxCell>
        <mxCell id="R3zVgSlBBkoLg3xWVGZW-66" value="Yes" style="edgeLabel;html=1;align=center;verticalAlign=middle;resizable=0;points=[];" vertex="1" connectable="0" parent="R3zVgSlBBkoLg3xWVGZW-65">
          <mxGeometry x="-0.3972" relative="1" as="geometry">
            <mxPoint as="offset" />
          </mxGeometry>
        </mxCell>
        <mxCell id="R3zVgSlBBkoLg3xWVGZW-67" value="Show errors" style="shape=parallelogram;perimeter=parallelogramPerimeter;whiteSpace=wrap;html=1;fixedSize=1;" vertex="1" parent="1">
          <mxGeometry x="1580" y="1470" width="120" height="60" as="geometry" />
        </mxCell>
        <mxCell id="R3zVgSlBBkoLg3xWVGZW-68" style="edgeStyle=orthogonalEdgeStyle;rounded=0;orthogonalLoop=1;jettySize=auto;html=1;exitX=1;exitY=0.5;exitDx=0;exitDy=0;entryX=0.654;entryY=-0.007;entryDx=0;entryDy=0;entryPerimeter=0;" edge="1" parent="1" source="R3zVgSlBBkoLg3xWVGZW-62" target="R3zVgSlBBkoLg3xWVGZW-67">
          <mxGeometry relative="1" as="geometry" />
        </mxCell>
        <mxCell id="R3zVgSlBBkoLg3xWVGZW-69" value="No" style="edgeLabel;html=1;align=center;verticalAlign=middle;resizable=0;points=[];" vertex="1" connectable="0" parent="R3zVgSlBBkoLg3xWVGZW-68">
          <mxGeometry x="-0.4117" y="2" relative="1" as="geometry">
            <mxPoint as="offset" />
          </mxGeometry>
        </mxCell>
        <mxCell id="R3zVgSlBBkoLg3xWVGZW-75" style="edgeStyle=orthogonalEdgeStyle;rounded=0;orthogonalLoop=1;jettySize=auto;html=1;exitX=0.5;exitY=1;exitDx=0;exitDy=0;entryX=0;entryY=0.5;entryDx=0;entryDy=0;" edge="1" parent="1" source="R3zVgSlBBkoLg3xWVGZW-70" target="R3zVgSlBBkoLg3xWVGZW-73">
          <mxGeometry relative="1" as="geometry" />
        </mxCell>
        <mxCell id="R3zVgSlBBkoLg3xWVGZW-70" value="Refresh table" style="shape=parallelogram;perimeter=parallelogramPerimeter;whiteSpace=wrap;html=1;fixedSize=1;" vertex="1" parent="1">
          <mxGeometry x="1360" y="1580" width="120" height="60" as="geometry" />
        </mxCell>
        <mxCell id="R3zVgSlBBkoLg3xWVGZW-105" style="edgeStyle=orthogonalEdgeStyle;rounded=0;orthogonalLoop=1;jettySize=auto;html=1;exitX=0.5;exitY=1;exitDx=0;exitDy=0;" edge="1" parent="1" source="R3zVgSlBBkoLg3xWVGZW-73">
          <mxGeometry relative="1" as="geometry">
            <mxPoint x="1550" y="1760" as="targetPoint" />
          </mxGeometry>
        </mxCell>
        <mxCell id="R3zVgSlBBkoLg3xWVGZW-73" value="" style="rhombus;whiteSpace=wrap;html=1;" vertex="1" parent="1">
          <mxGeometry x="1530" y="1660" width="40" height="30" as="geometry" />
        </mxCell>
        <mxCell id="R3zVgSlBBkoLg3xWVGZW-74" style="edgeStyle=orthogonalEdgeStyle;rounded=0;orthogonalLoop=1;jettySize=auto;html=1;exitX=0.5;exitY=1;exitDx=0;exitDy=0;entryX=0.957;entryY=0.522;entryDx=0;entryDy=0;entryPerimeter=0;" edge="1" parent="1">
          <mxGeometry relative="1" as="geometry">
            <mxPoint x="1641.72" y="1530" as="sourcePoint" />
            <mxPoint x="1570" y="1675.66" as="targetPoint" />
            <Array as="points">
              <mxPoint x="1642" y="1676" />
              <mxPoint x="1572" y="1676" />
            </Array>
          </mxGeometry>
        </mxCell>
        <mxCell id="R3zVgSlBBkoLg3xWVGZW-91" style="edgeStyle=orthogonalEdgeStyle;rounded=0;orthogonalLoop=1;jettySize=auto;html=1;exitX=1;exitY=0.5;exitDx=0;exitDy=0;entryX=0;entryY=0.5;entryDx=0;entryDy=0;" edge="1" parent="1" source="R3zVgSlBBkoLg3xWVGZW-76" target="R3zVgSlBBkoLg3xWVGZW-90">
          <mxGeometry relative="1" as="geometry" />
        </mxCell>
        <mxCell id="R3zVgSlBBkoLg3xWVGZW-76" value="Is it edit?" style="rhombus;whiteSpace=wrap;html=1;" vertex="1" parent="1">
          <mxGeometry x="1800" y="1050" width="80" height="60" as="geometry" />
        </mxCell>
        <mxCell id="R3zVgSlBBkoLg3xWVGZW-86" style="edgeStyle=orthogonalEdgeStyle;rounded=0;orthogonalLoop=1;jettySize=auto;html=1;exitX=0.5;exitY=1;exitDx=0;exitDy=0;entryX=0.5;entryY=0;entryDx=0;entryDy=0;" edge="1" parent="1" source="R3zVgSlBBkoLg3xWVGZW-78" target="R3zVgSlBBkoLg3xWVGZW-80">
          <mxGeometry relative="1" as="geometry" />
        </mxCell>
        <mxCell id="R3zVgSlBBkoLg3xWVGZW-78" value="Open &quot; Edit staff &quot;&lt;div&gt;form&lt;/div&gt;" style="shape=parallelogram;perimeter=parallelogramPerimeter;whiteSpace=wrap;html=1;fixedSize=1;" vertex="1" parent="1">
          <mxGeometry x="1770" y="1150" width="120" height="60" as="geometry" />
        </mxCell>
        <mxCell id="R3zVgSlBBkoLg3xWVGZW-87" style="edgeStyle=orthogonalEdgeStyle;rounded=0;orthogonalLoop=1;jettySize=auto;html=1;exitX=0.5;exitY=1;exitDx=0;exitDy=0;entryX=0.5;entryY=0;entryDx=0;entryDy=0;" edge="1" parent="1" source="R3zVgSlBBkoLg3xWVGZW-80" target="R3zVgSlBBkoLg3xWVGZW-81">
          <mxGeometry relative="1" as="geometry" />
        </mxCell>
        <mxCell id="R3zVgSlBBkoLg3xWVGZW-80" value="Validate change" style="rounded=0;whiteSpace=wrap;html=1;" vertex="1" parent="1">
          <mxGeometry x="1770" y="1270" width="120" height="60" as="geometry" />
        </mxCell>
        <mxCell id="R3zVgSlBBkoLg3xWVGZW-89" style="edgeStyle=orthogonalEdgeStyle;rounded=0;orthogonalLoop=1;jettySize=auto;html=1;exitX=0.5;exitY=1;exitDx=0;exitDy=0;entryX=0.5;entryY=0;entryDx=0;entryDy=0;" edge="1" parent="1" source="R3zVgSlBBkoLg3xWVGZW-81" target="R3zVgSlBBkoLg3xWVGZW-88">
          <mxGeometry relative="1" as="geometry" />
        </mxCell>
        <mxCell id="R3zVgSlBBkoLg3xWVGZW-81" value="Update staff record" style="rounded=0;whiteSpace=wrap;html=1;" vertex="1" parent="1">
          <mxGeometry x="1770" y="1390" width="120" height="60" as="geometry" />
        </mxCell>
        <mxCell id="R3zVgSlBBkoLg3xWVGZW-83" style="edgeStyle=orthogonalEdgeStyle;rounded=0;orthogonalLoop=1;jettySize=auto;html=1;exitX=0.5;exitY=1;exitDx=0;exitDy=0;entryX=0.584;entryY=0;entryDx=0;entryDy=0;entryPerimeter=0;" edge="1" parent="1" source="R3zVgSlBBkoLg3xWVGZW-76" target="R3zVgSlBBkoLg3xWVGZW-78">
          <mxGeometry relative="1" as="geometry" />
        </mxCell>
        <mxCell id="R3zVgSlBBkoLg3xWVGZW-104" style="edgeStyle=orthogonalEdgeStyle;rounded=0;orthogonalLoop=1;jettySize=auto;html=1;exitX=0.5;exitY=1;exitDx=0;exitDy=0;" edge="1" parent="1" source="R3zVgSlBBkoLg3xWVGZW-88">
          <mxGeometry relative="1" as="geometry">
            <mxPoint x="1830" y="1760" as="targetPoint" />
          </mxGeometry>
        </mxCell>
        <mxCell id="R3zVgSlBBkoLg3xWVGZW-88" value="Refresh table" style="shape=parallelogram;perimeter=parallelogramPerimeter;whiteSpace=wrap;html=1;fixedSize=1;" vertex="1" parent="1">
          <mxGeometry x="1770" y="1490" width="120" height="60" as="geometry" />
        </mxCell>
        <mxCell id="R3zVgSlBBkoLg3xWVGZW-102" style="edgeStyle=orthogonalEdgeStyle;rounded=0;orthogonalLoop=1;jettySize=auto;html=1;exitX=1;exitY=0.5;exitDx=0;exitDy=0;" edge="1" parent="1" source="R3zVgSlBBkoLg3xWVGZW-90">
          <mxGeometry relative="1" as="geometry">
            <mxPoint x="2210" y="1760" as="targetPoint" />
          </mxGeometry>
        </mxCell>
        <mxCell id="R3zVgSlBBkoLg3xWVGZW-90" value="Is it delete?" style="rhombus;whiteSpace=wrap;html=1;" vertex="1" parent="1">
          <mxGeometry x="1970" y="1050" width="80" height="60" as="geometry" />
        </mxCell>
        <mxCell id="R3zVgSlBBkoLg3xWVGZW-95" style="edgeStyle=orthogonalEdgeStyle;rounded=0;orthogonalLoop=1;jettySize=auto;html=1;exitX=0.5;exitY=1;exitDx=0;exitDy=0;entryX=0.5;entryY=0;entryDx=0;entryDy=0;" edge="1" parent="1" source="R3zVgSlBBkoLg3xWVGZW-92" target="R3zVgSlBBkoLg3xWVGZW-93">
          <mxGeometry relative="1" as="geometry" />
        </mxCell>
        <mxCell id="R3zVgSlBBkoLg3xWVGZW-96" value="Yes" style="edgeLabel;html=1;align=center;verticalAlign=middle;resizable=0;points=[];" vertex="1" connectable="0" parent="R3zVgSlBBkoLg3xWVGZW-95">
          <mxGeometry x="-0.0717" y="-1" relative="1" as="geometry">
            <mxPoint as="offset" />
          </mxGeometry>
        </mxCell>
        <mxCell id="R3zVgSlBBkoLg3xWVGZW-101" style="edgeStyle=orthogonalEdgeStyle;rounded=0;orthogonalLoop=1;jettySize=auto;html=1;exitX=1;exitY=0.5;exitDx=0;exitDy=0;entryX=1;entryY=0.5;entryDx=0;entryDy=0;" edge="1" parent="1" source="R3zVgSlBBkoLg3xWVGZW-92" target="R3zVgSlBBkoLg3xWVGZW-99">
          <mxGeometry relative="1" as="geometry">
            <Array as="points">
              <mxPoint x="2090" y="1180" />
              <mxPoint x="2090" y="1520" />
            </Array>
          </mxGeometry>
        </mxCell>
        <mxCell id="R3zVgSlBBkoLg3xWVGZW-92" value="Confirm delete?" style="rhombus;whiteSpace=wrap;html=1;" vertex="1" parent="1">
          <mxGeometry x="1970" y="1140" width="80" height="80" as="geometry" />
        </mxCell>
        <mxCell id="R3zVgSlBBkoLg3xWVGZW-93" value="Remove staff record" style="rounded=0;whiteSpace=wrap;html=1;" vertex="1" parent="1">
          <mxGeometry x="1950" y="1270" width="120" height="60" as="geometry" />
        </mxCell>
        <mxCell id="R3zVgSlBBkoLg3xWVGZW-100" style="edgeStyle=orthogonalEdgeStyle;rounded=0;orthogonalLoop=1;jettySize=auto;html=1;exitX=0.5;exitY=1;exitDx=0;exitDy=0;entryX=0.5;entryY=0;entryDx=0;entryDy=0;" edge="1" parent="1" source="R3zVgSlBBkoLg3xWVGZW-97" target="R3zVgSlBBkoLg3xWVGZW-99">
          <mxGeometry relative="1" as="geometry" />
        </mxCell>
        <mxCell id="R3zVgSlBBkoLg3xWVGZW-97" value="Refresh table" style="shape=parallelogram;perimeter=parallelogramPerimeter;whiteSpace=wrap;html=1;fixedSize=1;" vertex="1" parent="1">
          <mxGeometry x="1940" y="1390" width="120" height="60" as="geometry" />
        </mxCell>
        <mxCell id="R3zVgSlBBkoLg3xWVGZW-98" style="edgeStyle=orthogonalEdgeStyle;rounded=0;orthogonalLoop=1;jettySize=auto;html=1;exitX=0.5;exitY=1;exitDx=0;exitDy=0;entryX=0.585;entryY=0.033;entryDx=0;entryDy=0;entryPerimeter=0;" edge="1" parent="1" source="R3zVgSlBBkoLg3xWVGZW-93" target="R3zVgSlBBkoLg3xWVGZW-97">
          <mxGeometry relative="1" as="geometry" />
        </mxCell>
        <mxCell id="R3zVgSlBBkoLg3xWVGZW-103" style="edgeStyle=orthogonalEdgeStyle;rounded=0;orthogonalLoop=1;jettySize=auto;html=1;exitX=0.5;exitY=1;exitDx=0;exitDy=0;" edge="1" parent="1" source="R3zVgSlBBkoLg3xWVGZW-99">
          <mxGeometry relative="1" as="geometry">
            <mxPoint x="2000" y="1760" as="targetPoint" />
          </mxGeometry>
        </mxCell>
        <mxCell id="R3zVgSlBBkoLg3xWVGZW-99" value="" style="rhombus;whiteSpace=wrap;html=1;" vertex="1" parent="1">
          <mxGeometry x="1985" y="1505" width="30" height="30" as="geometry" />
        </mxCell>
        <mxCell id="R3zVgSlBBkoLg3xWVGZW-106" value="" style="endArrow=none;html=1;rounded=0;" edge="1" parent="1">
          <mxGeometry width="50" height="50" relative="1" as="geometry">
            <mxPoint x="1550" y="1760" as="sourcePoint" />
            <mxPoint x="2216.0000610351562" y="1760" as="targetPoint" />
          </mxGeometry>
        </mxCell>
        <mxCell id="R3zVgSlBBkoLg3xWVGZW-107" value="Back to dashboared" style="rounded=0;whiteSpace=wrap;html=1;" vertex="1" parent="1">
          <mxGeometry x="1750" y="1860" width="120" height="60" as="geometry" />
        </mxCell>
        <mxCell id="R3zVgSlBBkoLg3xWVGZW-108" value="" style="endArrow=classic;html=1;rounded=0;entryX=0.418;entryY=0.034;entryDx=0;entryDy=0;entryPerimeter=0;" edge="1" parent="1" target="R3zVgSlBBkoLg3xWVGZW-107">
          <mxGeometry width="50" height="50" relative="1" as="geometry">
            <mxPoint x="1800" y="1760" as="sourcePoint" />
            <mxPoint x="1860" y="1800" as="targetPoint" />
            <Array as="points">
              <mxPoint x="1800" y="1820" />
            </Array>
          </mxGeometry>
        </mxCell>
        <mxCell id="R3zVgSlBBkoLg3xWVGZW-109" value="Select major tab" style="shape=parallelogram;perimeter=parallelogramPerimeter;whiteSpace=wrap;html=1;fixedSize=1;" vertex="1" parent="1">
          <mxGeometry x="2690" y="960" width="120" height="60" as="geometry" />
        </mxCell>
        <mxCell id="R3zVgSlBBkoLg3xWVGZW-114" style="edgeStyle=orthogonalEdgeStyle;rounded=0;orthogonalLoop=1;jettySize=auto;html=1;exitX=0.5;exitY=1;exitDx=0;exitDy=0;entryX=0.5;entryY=0;entryDx=0;entryDy=0;" edge="1" parent="1" source="R3zVgSlBBkoLg3xWVGZW-111" target="R3zVgSlBBkoLg3xWVGZW-113">
          <mxGeometry relative="1" as="geometry" />
        </mxCell>
        <mxCell id="R3zVgSlBBkoLg3xWVGZW-111" value="Load books &amp;amp; courses" style="rounded=0;whiteSpace=wrap;html=1;" vertex="1" parent="1">
          <mxGeometry x="2680" y="1070" width="120" height="60" as="geometry" />
        </mxCell>
        <mxCell id="R3zVgSlBBkoLg3xWVGZW-112" style="edgeStyle=orthogonalEdgeStyle;rounded=0;orthogonalLoop=1;jettySize=auto;html=1;exitX=0.5;exitY=1;exitDx=0;exitDy=0;entryX=0.53;entryY=0.034;entryDx=0;entryDy=0;entryPerimeter=0;" edge="1" parent="1" source="R3zVgSlBBkoLg3xWVGZW-109" target="R3zVgSlBBkoLg3xWVGZW-111">
          <mxGeometry relative="1" as="geometry">
            <Array as="points">
              <mxPoint x="2744" y="1020" />
              <mxPoint x="2744" y="1045" />
              <mxPoint x="2744" y="1045" />
            </Array>
          </mxGeometry>
        </mxCell>
        <mxCell id="R3zVgSlBBkoLg3xWVGZW-113" value="Display two tables(Books , Courses)" style="shape=parallelogram;perimeter=parallelogramPerimeter;whiteSpace=wrap;html=1;fixedSize=1;" vertex="1" parent="1">
          <mxGeometry x="2680" y="1170" width="120" height="60" as="geometry" />
        </mxCell>
        <mxCell id="R3zVgSlBBkoLg3xWVGZW-123" style="edgeStyle=orthogonalEdgeStyle;rounded=0;orthogonalLoop=1;jettySize=auto;html=1;exitX=1;exitY=0.5;exitDx=0;exitDy=0;entryX=1;entryY=0.5;entryDx=0;entryDy=0;" edge="1" parent="1" source="R3zVgSlBBkoLg3xWVGZW-115" target="R3zVgSlBBkoLg3xWVGZW-120">
          <mxGeometry relative="1" as="geometry">
            <Array as="points">
              <mxPoint x="2810" y="1310" />
              <mxPoint x="2810" y="1538" />
            </Array>
          </mxGeometry>
        </mxCell>
        <mxCell id="R3zVgSlBBkoLg3xWVGZW-115" value="Action?Add/Edit&lt;div&gt;/Delete&lt;/div&gt;" style="rhombus;whiteSpace=wrap;html=1;" vertex="1" parent="1">
          <mxGeometry x="2700" y="1270" width="80" height="80" as="geometry" />
        </mxCell>
        <mxCell id="R3zVgSlBBkoLg3xWVGZW-116" style="edgeStyle=orthogonalEdgeStyle;rounded=0;orthogonalLoop=1;jettySize=auto;html=1;exitX=0.5;exitY=1;exitDx=0;exitDy=0;entryX=0.5;entryY=0;entryDx=0;entryDy=0;" edge="1" parent="1" source="R3zVgSlBBkoLg3xWVGZW-113" target="R3zVgSlBBkoLg3xWVGZW-115">
          <mxGeometry relative="1" as="geometry" />
        </mxCell>
        <mxCell id="R3zVgSlBBkoLg3xWVGZW-121" style="edgeStyle=orthogonalEdgeStyle;rounded=0;orthogonalLoop=1;jettySize=auto;html=1;exitX=0.5;exitY=1;exitDx=0;exitDy=0;entryX=0.5;entryY=0;entryDx=0;entryDy=0;" edge="1" parent="1" source="R3zVgSlBBkoLg3xWVGZW-117" target="R3zVgSlBBkoLg3xWVGZW-120">
          <mxGeometry relative="1" as="geometry" />
        </mxCell>
        <mxCell id="R3zVgSlBBkoLg3xWVGZW-117" value="Follow same Add/Edit&lt;div&gt;/Delete sub-flows&lt;/div&gt;" style="rounded=0;whiteSpace=wrap;html=1;" vertex="1" parent="1">
          <mxGeometry x="2670" y="1400" width="120" height="60" as="geometry" />
        </mxCell>
        <mxCell id="R3zVgSlBBkoLg3xWVGZW-119" style="edgeStyle=orthogonalEdgeStyle;rounded=0;orthogonalLoop=1;jettySize=auto;html=1;exitX=0.5;exitY=1;exitDx=0;exitDy=0;entryX=0.584;entryY=0.037;entryDx=0;entryDy=0;entryPerimeter=0;" edge="1" parent="1" source="R3zVgSlBBkoLg3xWVGZW-115" target="R3zVgSlBBkoLg3xWVGZW-117">
          <mxGeometry relative="1" as="geometry" />
        </mxCell>
        <mxCell id="R3zVgSlBBkoLg3xWVGZW-120" value="" style="rhombus;whiteSpace=wrap;html=1;" vertex="1" parent="1">
          <mxGeometry x="2710" y="1515" width="40" height="45" as="geometry" />
        </mxCell>
        <mxCell id="R3zVgSlBBkoLg3xWVGZW-124" value="Back to dashboared" style="rounded=0;whiteSpace=wrap;html=1;" vertex="1" parent="1">
          <mxGeometry x="2660" y="1590" width="120" height="60" as="geometry" />
        </mxCell>
        <mxCell id="R3zVgSlBBkoLg3xWVGZW-125" style="edgeStyle=orthogonalEdgeStyle;rounded=0;orthogonalLoop=1;jettySize=auto;html=1;exitX=0.5;exitY=1;exitDx=0;exitDy=0;entryX=0.579;entryY=0.004;entryDx=0;entryDy=0;entryPerimeter=0;" edge="1" parent="1" source="R3zVgSlBBkoLg3xWVGZW-120" target="R3zVgSlBBkoLg3xWVGZW-124">
          <mxGeometry relative="1" as="geometry" />
        </mxCell>
        <mxCell id="R3zVgSlBBkoLg3xWVGZW-126" value="Fetch user list" style="rounded=0;whiteSpace=wrap;html=1;" vertex="1" parent="1">
          <mxGeometry x="3330" y="930" width="120" height="60" as="geometry" />
        </mxCell>
        <mxCell id="R3zVgSlBBkoLg3xWVGZW-131" style="edgeStyle=orthogonalEdgeStyle;rounded=0;orthogonalLoop=1;jettySize=auto;html=1;exitX=0;exitY=0.5;exitDx=0;exitDy=0;entryX=0.5;entryY=0;entryDx=0;entryDy=0;" edge="1" parent="1" source="R3zVgSlBBkoLg3xWVGZW-128" target="R3zVgSlBBkoLg3xWVGZW-130">
          <mxGeometry relative="1" as="geometry" />
        </mxCell>
        <mxCell id="R3zVgSlBBkoLg3xWVGZW-128" value="Show user table" style="shape=parallelogram;perimeter=parallelogramPerimeter;whiteSpace=wrap;html=1;fixedSize=1;" vertex="1" parent="1">
          <mxGeometry x="3320" y="1040" width="120" height="60" as="geometry" />
        </mxCell>
        <mxCell id="R3zVgSlBBkoLg3xWVGZW-129" style="edgeStyle=orthogonalEdgeStyle;rounded=0;orthogonalLoop=1;jettySize=auto;html=1;exitX=0.5;exitY=1;exitDx=0;exitDy=0;entryX=0.581;entryY=0.054;entryDx=0;entryDy=0;entryPerimeter=0;" edge="1" parent="1" source="R3zVgSlBBkoLg3xWVGZW-126" target="R3zVgSlBBkoLg3xWVGZW-128">
          <mxGeometry relative="1" as="geometry" />
        </mxCell>
        <mxCell id="R3zVgSlBBkoLg3xWVGZW-134" style="edgeStyle=orthogonalEdgeStyle;rounded=0;orthogonalLoop=1;jettySize=auto;html=1;exitX=0.5;exitY=1;exitDx=0;exitDy=0;entryX=0.5;entryY=0;entryDx=0;entryDy=0;" edge="1" parent="1" source="R3zVgSlBBkoLg3xWVGZW-130" target="R3zVgSlBBkoLg3xWVGZW-132">
          <mxGeometry relative="1" as="geometry" />
        </mxCell>
        <mxCell id="R3zVgSlBBkoLg3xWVGZW-135" value="Promote" style="edgeLabel;html=1;align=center;verticalAlign=middle;resizable=0;points=[];" vertex="1" connectable="0" parent="R3zVgSlBBkoLg3xWVGZW-134">
          <mxGeometry x="0.0286" y="1" relative="1" as="geometry">
            <mxPoint as="offset" />
          </mxGeometry>
        </mxCell>
        <mxCell id="R3zVgSlBBkoLg3xWVGZW-147" style="edgeStyle=orthogonalEdgeStyle;rounded=0;orthogonalLoop=1;jettySize=auto;html=1;exitX=1;exitY=0.5;exitDx=0;exitDy=0;entryX=0;entryY=0.5;entryDx=0;entryDy=0;" edge="1" parent="1" source="R3zVgSlBBkoLg3xWVGZW-130" target="R3zVgSlBBkoLg3xWVGZW-146">
          <mxGeometry relative="1" as="geometry" />
        </mxCell>
        <mxCell id="R3zVgSlBBkoLg3xWVGZW-130" value="Action" style="rhombus;whiteSpace=wrap;html=1;" vertex="1" parent="1">
          <mxGeometry x="3130" y="1130" width="90" height="80" as="geometry" />
        </mxCell>
        <mxCell id="R3zVgSlBBkoLg3xWVGZW-138" style="edgeStyle=orthogonalEdgeStyle;rounded=0;orthogonalLoop=1;jettySize=auto;html=1;exitX=0.5;exitY=1;exitDx=0;exitDy=0;entryX=0.5;entryY=0;entryDx=0;entryDy=0;" edge="1" parent="1" source="R3zVgSlBBkoLg3xWVGZW-132" target="R3zVgSlBBkoLg3xWVGZW-136">
          <mxGeometry relative="1" as="geometry" />
        </mxCell>
        <mxCell id="R3zVgSlBBkoLg3xWVGZW-139" value="Yes" style="edgeLabel;html=1;align=center;verticalAlign=middle;resizable=0;points=[];" vertex="1" connectable="0" parent="R3zVgSlBBkoLg3xWVGZW-138">
          <mxGeometry x="-0.0895" relative="1" as="geometry">
            <mxPoint as="offset" />
          </mxGeometry>
        </mxCell>
        <mxCell id="R3zVgSlBBkoLg3xWVGZW-145" style="edgeStyle=orthogonalEdgeStyle;rounded=0;orthogonalLoop=1;jettySize=auto;html=1;exitX=1;exitY=0.5;exitDx=0;exitDy=0;entryX=1;entryY=0.5;entryDx=0;entryDy=0;" edge="1" parent="1" source="R3zVgSlBBkoLg3xWVGZW-132" target="R3zVgSlBBkoLg3xWVGZW-141">
          <mxGeometry relative="1" as="geometry">
            <Array as="points">
              <mxPoint x="3260" y="1310" />
              <mxPoint x="3260" y="1640" />
            </Array>
          </mxGeometry>
        </mxCell>
        <mxCell id="R3zVgSlBBkoLg3xWVGZW-132" value="Promote to admin?" style="rhombus;whiteSpace=wrap;html=1;" vertex="1" parent="1">
          <mxGeometry x="3135" y="1270" width="80" height="80" as="geometry" />
        </mxCell>
        <mxCell id="R3zVgSlBBkoLg3xWVGZW-136" value="Update user role" style="rounded=0;whiteSpace=wrap;html=1;" vertex="1" parent="1">
          <mxGeometry x="3115" y="1400" width="120" height="60" as="geometry" />
        </mxCell>
        <mxCell id="R3zVgSlBBkoLg3xWVGZW-143" style="edgeStyle=orthogonalEdgeStyle;rounded=0;orthogonalLoop=1;jettySize=auto;html=1;exitX=0.5;exitY=1;exitDx=0;exitDy=0;entryX=0.5;entryY=0;entryDx=0;entryDy=0;" edge="1" parent="1" source="R3zVgSlBBkoLg3xWVGZW-137" target="R3zVgSlBBkoLg3xWVGZW-141">
          <mxGeometry relative="1" as="geometry" />
        </mxCell>
        <mxCell id="R3zVgSlBBkoLg3xWVGZW-137" value="Show &quot; Role&lt;div&gt;&amp;nbsp;updated&quot;&lt;/div&gt;" style="shape=parallelogram;perimeter=parallelogramPerimeter;whiteSpace=wrap;html=1;fixedSize=1;" vertex="1" parent="1">
          <mxGeometry x="3110" y="1515" width="120" height="60" as="geometry" />
        </mxCell>
        <mxCell id="R3zVgSlBBkoLg3xWVGZW-140" style="edgeStyle=orthogonalEdgeStyle;rounded=0;orthogonalLoop=1;jettySize=auto;html=1;exitX=0.5;exitY=1;exitDx=0;exitDy=0;entryX=0.546;entryY=0.021;entryDx=0;entryDy=0;entryPerimeter=0;" edge="1" parent="1" source="R3zVgSlBBkoLg3xWVGZW-136" target="R3zVgSlBBkoLg3xWVGZW-137">
          <mxGeometry relative="1" as="geometry" />
        </mxCell>
        <mxCell id="R3zVgSlBBkoLg3xWVGZW-141" value="" style="rhombus;whiteSpace=wrap;html=1;" vertex="1" parent="1">
          <mxGeometry x="3150" y="1620" width="40" height="40" as="geometry" />
        </mxCell>
        <mxCell id="R3zVgSlBBkoLg3xWVGZW-149" style="edgeStyle=orthogonalEdgeStyle;rounded=0;orthogonalLoop=1;jettySize=auto;html=1;exitX=0.5;exitY=1;exitDx=0;exitDy=0;entryX=0.5;entryY=0;entryDx=0;entryDy=0;" edge="1" parent="1" source="R3zVgSlBBkoLg3xWVGZW-146" target="R3zVgSlBBkoLg3xWVGZW-148">
          <mxGeometry relative="1" as="geometry" />
        </mxCell>
        <mxCell id="R3zVgSlBBkoLg3xWVGZW-160" style="edgeStyle=orthogonalEdgeStyle;rounded=0;orthogonalLoop=1;jettySize=auto;html=1;exitX=1;exitY=0.5;exitDx=0;exitDy=0;entryX=0;entryY=0.5;entryDx=0;entryDy=0;" edge="1" parent="1" source="R3zVgSlBBkoLg3xWVGZW-146" target="R3zVgSlBBkoLg3xWVGZW-159">
          <mxGeometry relative="1" as="geometry" />
        </mxCell>
        <mxCell id="R3zVgSlBBkoLg3xWVGZW-146" value="Block" style="rhombus;whiteSpace=wrap;html=1;" vertex="1" parent="1">
          <mxGeometry x="3380" y="1130" width="80" height="80" as="geometry" />
        </mxCell>
        <mxCell id="R3zVgSlBBkoLg3xWVGZW-151" style="edgeStyle=orthogonalEdgeStyle;rounded=0;orthogonalLoop=1;jettySize=auto;html=1;exitX=0.5;exitY=1;exitDx=0;exitDy=0;entryX=0.5;entryY=0;entryDx=0;entryDy=0;" edge="1" parent="1" source="R3zVgSlBBkoLg3xWVGZW-148" target="R3zVgSlBBkoLg3xWVGZW-150">
          <mxGeometry relative="1" as="geometry" />
        </mxCell>
        <mxCell id="R3zVgSlBBkoLg3xWVGZW-152" value="Yes" style="edgeLabel;html=1;align=center;verticalAlign=middle;resizable=0;points=[];" vertex="1" connectable="0" parent="R3zVgSlBBkoLg3xWVGZW-151">
          <mxGeometry x="-0.3242" y="-2" relative="1" as="geometry">
            <mxPoint as="offset" />
          </mxGeometry>
        </mxCell>
        <mxCell id="R3zVgSlBBkoLg3xWVGZW-158" style="edgeStyle=orthogonalEdgeStyle;rounded=0;orthogonalLoop=1;jettySize=auto;html=1;exitX=1;exitY=0.5;exitDx=0;exitDy=0;entryX=1;entryY=0.5;entryDx=0;entryDy=0;" edge="1" parent="1" source="R3zVgSlBBkoLg3xWVGZW-148" target="R3zVgSlBBkoLg3xWVGZW-156">
          <mxGeometry relative="1" as="geometry">
            <Array as="points">
              <mxPoint x="3500" y="1310" />
              <mxPoint x="3500" y="1640" />
            </Array>
          </mxGeometry>
        </mxCell>
        <mxCell id="R3zVgSlBBkoLg3xWVGZW-148" value="Confirm block?" style="rhombus;whiteSpace=wrap;html=1;" vertex="1" parent="1">
          <mxGeometry x="3380" y="1270" width="80" height="80" as="geometry" />
        </mxCell>
        <mxCell id="R3zVgSlBBkoLg3xWVGZW-155" style="edgeStyle=orthogonalEdgeStyle;rounded=0;orthogonalLoop=1;jettySize=auto;html=1;exitX=0.5;exitY=1;exitDx=0;exitDy=0;entryX=0.5;entryY=0;entryDx=0;entryDy=0;" edge="1" parent="1" source="R3zVgSlBBkoLg3xWVGZW-150" target="R3zVgSlBBkoLg3xWVGZW-154">
          <mxGeometry relative="1" as="geometry" />
        </mxCell>
        <mxCell id="R3zVgSlBBkoLg3xWVGZW-150" value="Set user status = blocked" style="rounded=0;whiteSpace=wrap;html=1;" vertex="1" parent="1">
          <mxGeometry x="3360" y="1400" width="120" height="60" as="geometry" />
        </mxCell>
        <mxCell id="R3zVgSlBBkoLg3xWVGZW-157" style="edgeStyle=orthogonalEdgeStyle;rounded=0;orthogonalLoop=1;jettySize=auto;html=1;exitX=0.5;exitY=1;exitDx=0;exitDy=0;entryX=0.5;entryY=0;entryDx=0;entryDy=0;" edge="1" parent="1" source="R3zVgSlBBkoLg3xWVGZW-154" target="R3zVgSlBBkoLg3xWVGZW-156">
          <mxGeometry relative="1" as="geometry" />
        </mxCell>
        <mxCell id="R3zVgSlBBkoLg3xWVGZW-154" value="Show&lt;div&gt;&amp;nbsp;&quot; User blocked&quot;&lt;/div&gt;" style="shape=parallelogram;perimeter=parallelogramPerimeter;whiteSpace=wrap;html=1;fixedSize=1;" vertex="1" parent="1">
          <mxGeometry x="3360" y="1515" width="120" height="60" as="geometry" />
        </mxCell>
        <mxCell id="R3zVgSlBBkoLg3xWVGZW-175" style="edgeStyle=orthogonalEdgeStyle;rounded=0;orthogonalLoop=1;jettySize=auto;html=1;exitX=0.5;exitY=1;exitDx=0;exitDy=0;" edge="1" parent="1" source="R3zVgSlBBkoLg3xWVGZW-156">
          <mxGeometry relative="1" as="geometry">
            <mxPoint x="3420.142857142857" y="1730" as="targetPoint" />
          </mxGeometry>
        </mxCell>
        <mxCell id="R3zVgSlBBkoLg3xWVGZW-156" value="" style="rhombus;whiteSpace=wrap;html=1;" vertex="1" parent="1">
          <mxGeometry x="3400" y="1620" width="40" height="40" as="geometry" />
        </mxCell>
        <mxCell id="R3zVgSlBBkoLg3xWVGZW-162" style="edgeStyle=orthogonalEdgeStyle;rounded=0;orthogonalLoop=1;jettySize=auto;html=1;exitX=0.5;exitY=1;exitDx=0;exitDy=0;entryX=0.5;entryY=0;entryDx=0;entryDy=0;" edge="1" parent="1" source="R3zVgSlBBkoLg3xWVGZW-159" target="R3zVgSlBBkoLg3xWVGZW-161">
          <mxGeometry relative="1" as="geometry" />
        </mxCell>
        <mxCell id="R3zVgSlBBkoLg3xWVGZW-177" style="edgeStyle=orthogonalEdgeStyle;rounded=0;orthogonalLoop=1;jettySize=auto;html=1;exitX=1;exitY=0.5;exitDx=0;exitDy=0;" edge="1" parent="1" source="R3zVgSlBBkoLg3xWVGZW-159">
          <mxGeometry relative="1" as="geometry">
            <mxPoint x="3810" y="1730" as="targetPoint" />
          </mxGeometry>
        </mxCell>
        <mxCell id="R3zVgSlBBkoLg3xWVGZW-159" value="Delete" style="rhombus;whiteSpace=wrap;html=1;" vertex="1" parent="1">
          <mxGeometry x="3600" y="1130" width="80" height="80" as="geometry" />
        </mxCell>
        <mxCell id="R3zVgSlBBkoLg3xWVGZW-165" style="edgeStyle=orthogonalEdgeStyle;rounded=0;orthogonalLoop=1;jettySize=auto;html=1;exitX=0.5;exitY=1;exitDx=0;exitDy=0;entryX=0.5;entryY=0;entryDx=0;entryDy=0;" edge="1" parent="1" source="R3zVgSlBBkoLg3xWVGZW-161" target="R3zVgSlBBkoLg3xWVGZW-163">
          <mxGeometry relative="1" as="geometry" />
        </mxCell>
        <mxCell id="R3zVgSlBBkoLg3xWVGZW-167" value="Yes" style="edgeLabel;html=1;align=center;verticalAlign=middle;resizable=0;points=[];" vertex="1" connectable="0" parent="R3zVgSlBBkoLg3xWVGZW-165">
          <mxGeometry x="-0.1746" y="-1" relative="1" as="geometry">
            <mxPoint as="offset" />
          </mxGeometry>
        </mxCell>
        <mxCell id="R3zVgSlBBkoLg3xWVGZW-170" style="edgeStyle=orthogonalEdgeStyle;rounded=0;orthogonalLoop=1;jettySize=auto;html=1;exitX=1;exitY=0.5;exitDx=0;exitDy=0;entryX=1;entryY=0.5;entryDx=0;entryDy=0;" edge="1" parent="1" source="R3zVgSlBBkoLg3xWVGZW-161" target="R3zVgSlBBkoLg3xWVGZW-168">
          <mxGeometry relative="1" as="geometry">
            <Array as="points">
              <mxPoint x="3720" y="1300" />
              <mxPoint x="3720" y="1640" />
            </Array>
          </mxGeometry>
        </mxCell>
        <mxCell id="R3zVgSlBBkoLg3xWVGZW-161" value="Confirm delete?" style="rhombus;whiteSpace=wrap;html=1;" vertex="1" parent="1">
          <mxGeometry x="3600" y="1260" width="80" height="80" as="geometry" />
        </mxCell>
        <mxCell id="R3zVgSlBBkoLg3xWVGZW-166" style="edgeStyle=orthogonalEdgeStyle;rounded=0;orthogonalLoop=1;jettySize=auto;html=1;exitX=0.5;exitY=1;exitDx=0;exitDy=0;entryX=0.5;entryY=0;entryDx=0;entryDy=0;" edge="1" parent="1" source="R3zVgSlBBkoLg3xWVGZW-163" target="R3zVgSlBBkoLg3xWVGZW-164">
          <mxGeometry relative="1" as="geometry" />
        </mxCell>
        <mxCell id="R3zVgSlBBkoLg3xWVGZW-163" value="Remove user record" style="rounded=0;whiteSpace=wrap;html=1;" vertex="1" parent="1">
          <mxGeometry x="3580" y="1400" width="120" height="60" as="geometry" />
        </mxCell>
        <mxCell id="R3zVgSlBBkoLg3xWVGZW-169" style="edgeStyle=orthogonalEdgeStyle;rounded=0;orthogonalLoop=1;jettySize=auto;html=1;exitX=0.5;exitY=1;exitDx=0;exitDy=0;entryX=0.5;entryY=0;entryDx=0;entryDy=0;" edge="1" parent="1" source="R3zVgSlBBkoLg3xWVGZW-164" target="R3zVgSlBBkoLg3xWVGZW-168">
          <mxGeometry relative="1" as="geometry" />
        </mxCell>
        <mxCell id="R3zVgSlBBkoLg3xWVGZW-164" value="Refresh table" style="shape=parallelogram;perimeter=parallelogramPerimeter;whiteSpace=wrap;html=1;fixedSize=1;" vertex="1" parent="1">
          <mxGeometry x="3580" y="1520" width="120" height="60" as="geometry" />
        </mxCell>
        <mxCell id="R3zVgSlBBkoLg3xWVGZW-176" style="edgeStyle=orthogonalEdgeStyle;rounded=0;orthogonalLoop=1;jettySize=auto;html=1;exitX=0.5;exitY=1;exitDx=0;exitDy=0;" edge="1" parent="1" source="R3zVgSlBBkoLg3xWVGZW-168">
          <mxGeometry relative="1" as="geometry">
            <mxPoint x="3640.142857142857" y="1730" as="targetPoint" />
          </mxGeometry>
        </mxCell>
        <mxCell id="R3zVgSlBBkoLg3xWVGZW-168" value="" style="rhombus;whiteSpace=wrap;html=1;" vertex="1" parent="1">
          <mxGeometry x="3615" y="1620" width="50" height="40" as="geometry" />
        </mxCell>
        <mxCell id="R3zVgSlBBkoLg3xWVGZW-171" style="edgeStyle=orthogonalEdgeStyle;rounded=0;orthogonalLoop=1;jettySize=auto;html=1;exitX=0.5;exitY=1;exitDx=0;exitDy=0;" edge="1" parent="1">
          <mxGeometry relative="1" as="geometry">
            <mxPoint x="3170" y="1730" as="targetPoint" />
            <mxPoint x="3170" y="1660" as="sourcePoint" />
          </mxGeometry>
        </mxCell>
        <mxCell id="R3zVgSlBBkoLg3xWVGZW-172" value="" style="endArrow=none;html=1;rounded=0;" edge="1" parent="1">
          <mxGeometry width="50" height="50" relative="1" as="geometry">
            <mxPoint x="3170" y="1730" as="sourcePoint" />
            <mxPoint x="3810" y="1730" as="targetPoint" />
          </mxGeometry>
        </mxCell>
        <mxCell id="R3zVgSlBBkoLg3xWVGZW-173" value="Back to dashboared" style="rounded=0;whiteSpace=wrap;html=1;" vertex="1" parent="1">
          <mxGeometry x="3370" y="1830" width="120" height="60" as="geometry" />
        </mxCell>
        <mxCell id="R3zVgSlBBkoLg3xWVGZW-174" value="" style="endArrow=classic;html=1;rounded=0;entryX=0.418;entryY=0.034;entryDx=0;entryDy=0;entryPerimeter=0;" edge="1" parent="1" target="R3zVgSlBBkoLg3xWVGZW-173">
          <mxGeometry width="50" height="50" relative="1" as="geometry">
            <mxPoint x="3420" y="1730" as="sourcePoint" />
            <mxPoint x="3480" y="1770" as="targetPoint" />
            <Array as="points">
              <mxPoint x="3420" y="1790" />
            </Array>
          </mxGeometry>
        </mxCell>
        <mxCell id="R3zVgSlBBkoLg3xWVGZW-179" style="edgeStyle=orthogonalEdgeStyle;rounded=0;orthogonalLoop=1;jettySize=auto;html=1;exitX=0.5;exitY=1;exitDx=0;exitDy=0;entryX=-0.133;entryY=0.628;entryDx=0;entryDy=0;entryPerimeter=0;" edge="1" parent="1" source="R3zVgSlBBkoLg3xWVGZW-17" target="R3zVgSlBBkoLg3xWVGZW-21">
          <mxGeometry relative="1" as="geometry" />
        </mxCell>
        <mxCell id="R3zVgSlBBkoLg3xWVGZW-180" value="" style="endArrow=classic;html=1;rounded=0;exitX=0.908;exitY=0.962;exitDx=0;exitDy=0;exitPerimeter=0;entryX=0.595;entryY=-0.014;entryDx=0;entryDy=0;entryPerimeter=0;" edge="1" parent="1" source="R3zVgSlBBkoLg3xWVGZW-21" target="R3zVgSlBBkoLg3xWVGZW-26">
          <mxGeometry width="50" height="50" relative="1" as="geometry">
            <mxPoint x="1390" y="750" as="sourcePoint" />
            <mxPoint x="1440" y="700" as="targetPoint" />
          </mxGeometry>
        </mxCell>
        <mxCell id="R3zVgSlBBkoLg3xWVGZW-181" value="" style="endArrow=classic;html=1;rounded=0;entryX=0.526;entryY=-0.012;entryDx=0;entryDy=0;entryPerimeter=0;" edge="1" parent="1" target="R3zVgSlBBkoLg3xWVGZW-50">
          <mxGeometry width="50" height="50" relative="1" as="geometry">
            <mxPoint x="1723" y="836" as="sourcePoint" />
            <mxPoint x="1720" y="820" as="targetPoint" />
          </mxGeometry>
        </mxCell>
        <mxCell id="R3zVgSlBBkoLg3xWVGZW-182" value="" style="endArrow=classic;html=1;rounded=0;exitX=1.471;exitY=0.369;exitDx=0;exitDy=0;exitPerimeter=0;entryX=0.574;entryY=0;entryDx=0;entryDy=0;entryPerimeter=0;" edge="1" parent="1" source="R3zVgSlBBkoLg3xWVGZW-21" target="R3zVgSlBBkoLg3xWVGZW-109">
          <mxGeometry width="50" height="50" relative="1" as="geometry">
            <mxPoint x="2670" y="940" as="sourcePoint" />
            <mxPoint x="2720" y="890" as="targetPoint" />
          </mxGeometry>
        </mxCell>
        <mxCell id="R3zVgSlBBkoLg3xWVGZW-183" value="" style="endArrow=classic;html=1;rounded=0;exitX=1.2;exitY=0.152;exitDx=0;exitDy=0;exitPerimeter=0;entryX=0.537;entryY=-0.003;entryDx=0;entryDy=0;entryPerimeter=0;" edge="1" parent="1" source="R3zVgSlBBkoLg3xWVGZW-21" target="R3zVgSlBBkoLg3xWVGZW-126">
          <mxGeometry width="50" height="50" relative="1" as="geometry">
            <mxPoint x="3280" y="940" as="sourcePoint" />
            <mxPoint x="3330" y="890" as="targetPoint" />
          </mxGeometry>
        </mxCell>
        <mxCell id="R3zVgSlBBkoLg3xWVGZW-184" value="" style="html=1;points=[];perimeter=orthogonalPerimeter;fillColor=strokeColor;direction=south;" vertex="1" parent="1">
          <mxGeometry x="900" y="1990" width="2930" height="5" as="geometry" />
        </mxCell>
        <mxCell id="R3zVgSlBBkoLg3xWVGZW-186" style="edgeStyle=orthogonalEdgeStyle;rounded=0;orthogonalLoop=1;jettySize=auto;html=1;exitX=0.5;exitY=1;exitDx=0;exitDy=0;entryX=0.015;entryY=0.137;entryDx=0;entryDy=0;entryPerimeter=0;" edge="1" parent="1" source="R3zVgSlBBkoLg3xWVGZW-173" target="R3zVgSlBBkoLg3xWVGZW-184">
          <mxGeometry relative="1" as="geometry" />
        </mxCell>
        <mxCell id="R3zVgSlBBkoLg3xWVGZW-187" style="edgeStyle=orthogonalEdgeStyle;rounded=0;orthogonalLoop=1;jettySize=auto;html=1;exitX=0.5;exitY=1;exitDx=0;exitDy=0;entryX=-0.353;entryY=0.379;entryDx=0;entryDy=0;entryPerimeter=0;" edge="1" parent="1" source="R3zVgSlBBkoLg3xWVGZW-124" target="R3zVgSlBBkoLg3xWVGZW-184">
          <mxGeometry relative="1" as="geometry" />
        </mxCell>
        <mxCell id="R3zVgSlBBkoLg3xWVGZW-189" style="edgeStyle=orthogonalEdgeStyle;rounded=0;orthogonalLoop=1;jettySize=auto;html=1;exitX=0.5;exitY=1;exitDx=0;exitDy=0;entryX=-0.6;entryY=0.69;entryDx=0;entryDy=0;entryPerimeter=0;" edge="1" parent="1" source="R3zVgSlBBkoLg3xWVGZW-107" target="R3zVgSlBBkoLg3xWVGZW-184">
          <mxGeometry relative="1" as="geometry" />
        </mxCell>
        <mxCell id="R3zVgSlBBkoLg3xWVGZW-191" style="edgeStyle=orthogonalEdgeStyle;rounded=0;orthogonalLoop=1;jettySize=auto;html=1;exitX=0.5;exitY=1;exitDx=0;exitDy=0;entryX=-0.435;entryY=0.969;entryDx=0;entryDy=0;entryPerimeter=0;" edge="1" parent="1" source="R3zVgSlBBkoLg3xWVGZW-48" target="R3zVgSlBBkoLg3xWVGZW-184">
          <mxGeometry relative="1" as="geometry" />
        </mxCell>
        <mxCell id="R3zVgSlBBkoLg3xWVGZW-192" value="" style="ellipse;whiteSpace=wrap;html=1;aspect=fixed;" vertex="1" parent="1">
          <mxGeometry x="2280" y="2060" width="60" height="60" as="geometry" />
        </mxCell>
        <mxCell id="R3zVgSlBBkoLg3xWVGZW-193" value="" style="endArrow=classic;html=1;rounded=0;entryX=0.5;entryY=0;entryDx=0;entryDy=0;exitX=1.04;exitY=0.518;exitDx=0;exitDy=0;exitPerimeter=0;" edge="1" parent="1" source="R3zVgSlBBkoLg3xWVGZW-184" target="R3zVgSlBBkoLg3xWVGZW-192">
          <mxGeometry width="50" height="50" relative="1" as="geometry">
            <mxPoint x="2350" y="1990" as="sourcePoint" />
            <mxPoint x="2400" y="1940" as="targetPoint" />
          </mxGeometry>
        </mxCell>
      </root>
    </mxGraphModel>
  </diagram>
</mxfile>
